<svg xmlns="http://www.w3.org/2000/svg" xmlns:xlink="http://www.w3.org/1999/xlink" width="600" height="400" viewBox="0 0 2400 1600">
<defs>
  <clipPath id="clip630">
    <rect x="0" y="0" width="2400" height="1600"></rect>
  </clipPath>
</defs>
<path clip-path="url(#clip630)" d="M0 1600 L2400 1600 L2400 0 L0 0  Z" fill="#ffffff" fill-rule="evenodd" fill-opacity="1"></path>
<defs>
  <clipPath id="clip631">
    <rect x="480" y="0" width="1681" height="1600"></rect>
  </clipPath>
</defs>
<path clip-path="url(#clip630)" d="M202.177 1486.45 L2352.76 1486.45 L2352.76 47.2441 L202.177 47.2441  Z" fill="#ffffff" fill-rule="evenodd" fill-opacity="1"></path>
<defs>
  <clipPath id="clip632">
    <rect x="202" y="47" width="2152" height="1440"></rect>
  </clipPath>
</defs>
<polyline clip-path="url(#clip632)" style="stroke:#000000; stroke-linecap:round; stroke-linejoin:round; stroke-width:2; stroke-opacity:0.1; fill:none" points="221.637,1486.45 221.637,47.2441 "></polyline>
<polyline clip-path="url(#clip632)" style="stroke:#000000; stroke-linecap:round; stroke-linejoin:round; stroke-width:2; stroke-opacity:0.1; fill:none" points="739.2,1486.45 739.2,47.2441 "></polyline>
<polyline clip-path="url(#clip632)" style="stroke:#000000; stroke-linecap:round; stroke-linejoin:round; stroke-width:2; stroke-opacity:0.1; fill:none" points="1256.76,1486.45 1256.76,47.2441 "></polyline>
<polyline clip-path="url(#clip632)" style="stroke:#000000; stroke-linecap:round; stroke-linejoin:round; stroke-width:2; stroke-opacity:0.1; fill:none" points="1774.33,1486.45 1774.33,47.2441 "></polyline>
<polyline clip-path="url(#clip632)" style="stroke:#000000; stroke-linecap:round; stroke-linejoin:round; stroke-width:2; stroke-opacity:0.1; fill:none" points="2291.89,1486.45 2291.89,47.2441 "></polyline>
<polyline clip-path="url(#clip630)" style="stroke:#000000; stroke-linecap:round; stroke-linejoin:round; stroke-width:4; stroke-opacity:1; fill:none" points="202.177,1486.45 2352.76,1486.45 "></polyline>
<polyline clip-path="url(#clip630)" style="stroke:#000000; stroke-linecap:round; stroke-linejoin:round; stroke-width:4; stroke-opacity:1; fill:none" points="221.637,1486.45 221.637,1467.55 "></polyline>
<polyline clip-path="url(#clip630)" style="stroke:#000000; stroke-linecap:round; stroke-linejoin:round; stroke-width:4; stroke-opacity:1; fill:none" points="739.2,1486.45 739.2,1467.55 "></polyline>
<polyline clip-path="url(#clip630)" style="stroke:#000000; stroke-linecap:round; stroke-linejoin:round; stroke-width:4; stroke-opacity:1; fill:none" points="1256.76,1486.45 1256.76,1467.55 "></polyline>
<polyline clip-path="url(#clip630)" style="stroke:#000000; stroke-linecap:round; stroke-linejoin:round; stroke-width:4; stroke-opacity:1; fill:none" points="1774.33,1486.45 1774.33,1467.55 "></polyline>
<polyline clip-path="url(#clip630)" style="stroke:#000000; stroke-linecap:round; stroke-linejoin:round; stroke-width:4; stroke-opacity:1; fill:none" points="2291.89,1486.45 2291.89,1467.55 "></polyline>
<path clip-path="url(#clip630)" d="M221.637 1517.37 Q218.026 1517.37 216.197 1520.93 Q214.392 1524.47 214.392 1531.6 Q214.392 1538.71 216.197 1542.27 Q218.026 1545.82 221.637 1545.82 Q225.271 1545.82 227.077 1542.27 Q228.906 1538.71 228.906 1531.6 Q228.906 1524.47 227.077 1520.93 Q225.271 1517.37 221.637 1517.37 M221.637 1513.66 Q227.447 1513.66 230.503 1518.27 Q233.581 1522.85 233.581 1531.6 Q233.581 1540.33 230.503 1544.94 Q227.447 1549.52 221.637 1549.52 Q215.827 1549.52 212.748 1544.94 Q209.693 1540.33 209.693 1531.6 Q209.693 1522.85 212.748 1518.27 Q215.827 1513.66 221.637 1513.66 Z" fill="#000000" fill-rule="nonzero" fill-opacity="1"></path><path clip-path="url(#clip630)" d="M702.893 1544.91 L719.212 1544.91 L719.212 1548.85 L697.268 1548.85 L697.268 1544.91 Q699.93 1542.16 704.513 1537.53 Q709.12 1532.88 710.3 1531.53 Q712.545 1529.01 713.425 1527.27 Q714.328 1525.51 714.328 1523.82 Q714.328 1521.07 712.383 1519.33 Q710.462 1517.6 707.36 1517.6 Q705.161 1517.6 702.708 1518.36 Q700.277 1519.13 697.499 1520.68 L697.499 1515.95 Q700.323 1514.82 702.777 1514.24 Q705.231 1513.66 707.268 1513.66 Q712.638 1513.66 715.832 1516.35 Q719.027 1519.03 719.027 1523.52 Q719.027 1525.65 718.217 1527.57 Q717.43 1529.47 715.323 1532.07 Q714.745 1532.74 711.643 1535.95 Q708.541 1539.15 702.893 1544.91 Z" fill="#000000" fill-rule="nonzero" fill-opacity="1"></path><path clip-path="url(#clip630)" d="M729.073 1514.29 L747.43 1514.29 L747.43 1518.22 L733.356 1518.22 L733.356 1526.7 Q734.374 1526.35 735.393 1526.19 Q736.411 1526 737.43 1526 Q743.217 1526 746.596 1529.17 Q749.976 1532.34 749.976 1537.76 Q749.976 1543.34 746.504 1546.44 Q743.031 1549.52 736.712 1549.52 Q734.536 1549.52 732.268 1549.15 Q730.022 1548.78 727.615 1548.04 L727.615 1543.34 Q729.698 1544.47 731.92 1545.03 Q734.143 1545.58 736.619 1545.58 Q740.624 1545.58 742.962 1543.48 Q745.3 1541.37 745.3 1537.76 Q745.3 1534.15 742.962 1532.04 Q740.624 1529.94 736.619 1529.94 Q734.744 1529.94 732.869 1530.35 Q731.018 1530.77 729.073 1531.65 L729.073 1514.29 Z" fill="#000000" fill-rule="nonzero" fill-opacity="1"></path><path clip-path="url(#clip630)" d="M769.189 1517.37 Q765.578 1517.37 763.749 1520.93 Q761.943 1524.47 761.943 1531.6 Q761.943 1538.71 763.749 1542.27 Q765.578 1545.82 769.189 1545.82 Q772.823 1545.82 774.628 1542.27 Q776.457 1538.71 776.457 1531.6 Q776.457 1524.47 774.628 1520.93 Q772.823 1517.37 769.189 1517.37 M769.189 1513.66 Q774.999 1513.66 778.054 1518.27 Q781.133 1522.85 781.133 1531.6 Q781.133 1540.33 778.054 1544.94 Q774.999 1549.52 769.189 1549.52 Q763.379 1549.52 760.3 1544.94 Q757.244 1540.33 757.244 1531.6 Q757.244 1522.85 760.3 1518.27 Q763.379 1513.66 769.189 1513.66 Z" fill="#000000" fill-rule="nonzero" fill-opacity="1"></path><path clip-path="url(#clip630)" d="M1216.38 1514.29 L1234.74 1514.29 L1234.74 1518.22 L1220.66 1518.22 L1220.66 1526.7 Q1221.68 1526.35 1222.7 1526.19 Q1223.72 1526 1224.74 1526 Q1230.53 1526 1233.91 1529.17 Q1237.28 1532.34 1237.28 1537.76 Q1237.28 1543.34 1233.81 1546.44 Q1230.34 1549.52 1224.02 1549.52 Q1221.84 1549.52 1219.58 1549.15 Q1217.33 1548.78 1214.92 1548.04 L1214.92 1543.34 Q1217.01 1544.47 1219.23 1545.03 Q1221.45 1545.58 1223.93 1545.58 Q1227.93 1545.58 1230.27 1543.48 Q1232.61 1541.37 1232.61 1537.76 Q1232.61 1534.15 1230.27 1532.04 Q1227.93 1529.94 1223.93 1529.94 Q1222.05 1529.94 1220.18 1530.35 Q1218.33 1530.77 1216.38 1531.65 L1216.38 1514.29 Z" fill="#000000" fill-rule="nonzero" fill-opacity="1"></path><path clip-path="url(#clip630)" d="M1256.5 1517.37 Q1252.89 1517.37 1251.06 1520.93 Q1249.25 1524.47 1249.25 1531.6 Q1249.25 1538.71 1251.06 1542.27 Q1252.89 1545.82 1256.5 1545.82 Q1260.13 1545.82 1261.94 1542.27 Q1263.77 1538.71 1263.77 1531.6 Q1263.77 1524.47 1261.94 1520.93 Q1260.13 1517.37 1256.5 1517.37 M1256.5 1513.66 Q1262.31 1513.66 1265.36 1518.27 Q1268.44 1522.85 1268.44 1531.6 Q1268.44 1540.33 1265.36 1544.94 Q1262.31 1549.52 1256.5 1549.52 Q1250.69 1549.52 1247.61 1544.94 Q1244.55 1540.33 1244.55 1531.6 Q1244.55 1522.85 1247.61 1518.27 Q1250.69 1513.66 1256.5 1513.66 Z" fill="#000000" fill-rule="nonzero" fill-opacity="1"></path><path clip-path="url(#clip630)" d="M1286.66 1517.37 Q1283.05 1517.37 1281.22 1520.93 Q1279.41 1524.47 1279.41 1531.6 Q1279.41 1538.71 1281.22 1542.27 Q1283.05 1545.82 1286.66 1545.82 Q1290.29 1545.82 1292.1 1542.27 Q1293.93 1538.71 1293.93 1531.6 Q1293.93 1524.47 1292.1 1520.93 Q1290.29 1517.37 1286.66 1517.37 M1286.66 1513.66 Q1292.47 1513.66 1295.53 1518.27 Q1298.6 1522.85 1298.6 1531.6 Q1298.6 1540.33 1295.53 1544.94 Q1292.47 1549.52 1286.66 1549.52 Q1280.85 1549.52 1277.77 1544.94 Q1274.72 1540.33 1274.72 1531.6 Q1274.72 1522.85 1277.77 1518.27 Q1280.85 1513.66 1286.66 1513.66 Z" fill="#000000" fill-rule="nonzero" fill-opacity="1"></path><path clip-path="url(#clip630)" d="M1732.6 1514.29 L1754.82 1514.29 L1754.82 1516.28 L1742.28 1548.85 L1737.39 1548.85 L1749.2 1518.22 L1732.6 1518.22 L1732.6 1514.29 Z" fill="#000000" fill-rule="nonzero" fill-opacity="1"></path><path clip-path="url(#clip630)" d="M1763.99 1514.29 L1782.35 1514.29 L1782.35 1518.22 L1768.27 1518.22 L1768.27 1526.7 Q1769.29 1526.35 1770.31 1526.19 Q1771.33 1526 1772.35 1526 Q1778.13 1526 1781.51 1529.17 Q1784.89 1532.34 1784.89 1537.76 Q1784.89 1543.34 1781.42 1546.44 Q1777.95 1549.52 1771.63 1549.52 Q1769.45 1549.52 1767.19 1549.15 Q1764.94 1548.78 1762.53 1548.04 L1762.53 1543.34 Q1764.62 1544.47 1766.84 1545.03 Q1769.06 1545.58 1771.54 1545.58 Q1775.54 1545.58 1777.88 1543.48 Q1780.22 1541.37 1780.22 1537.76 Q1780.22 1534.15 1777.88 1532.04 Q1775.54 1529.94 1771.54 1529.94 Q1769.66 1529.94 1767.79 1530.35 Q1765.94 1530.77 1763.99 1531.65 L1763.99 1514.29 Z" fill="#000000" fill-rule="nonzero" fill-opacity="1"></path><path clip-path="url(#clip630)" d="M1804.11 1517.37 Q1800.5 1517.37 1798.67 1520.93 Q1796.86 1524.47 1796.86 1531.6 Q1796.86 1538.71 1798.67 1542.27 Q1800.5 1545.82 1804.11 1545.82 Q1807.74 1545.82 1809.55 1542.27 Q1811.38 1538.71 1811.38 1531.6 Q1811.38 1524.47 1809.55 1520.93 Q1807.74 1517.37 1804.11 1517.37 M1804.11 1513.66 Q1809.92 1513.66 1812.97 1518.27 Q1816.05 1522.85 1816.05 1531.6 Q1816.05 1540.33 1812.97 1544.94 Q1809.92 1549.52 1804.11 1549.52 Q1798.3 1549.52 1795.22 1544.94 Q1792.16 1540.33 1792.16 1531.6 Q1792.16 1522.85 1795.22 1518.27 Q1798.3 1513.66 1804.11 1513.66 Z" fill="#000000" fill-rule="nonzero" fill-opacity="1"></path><path clip-path="url(#clip630)" d="M2236.42 1544.91 L2244.06 1544.91 L2244.06 1518.55 L2235.74 1520.21 L2235.74 1515.95 L2244.01 1514.29 L2248.68 1514.29 L2248.68 1544.91 L2256.32 1544.91 L2256.32 1548.85 L2236.42 1548.85 L2236.42 1544.91 Z" fill="#000000" fill-rule="nonzero" fill-opacity="1"></path><path clip-path="url(#clip630)" d="M2275.77 1517.37 Q2272.16 1517.37 2270.33 1520.93 Q2268.52 1524.47 2268.52 1531.6 Q2268.52 1538.71 2270.33 1542.27 Q2272.16 1545.82 2275.77 1545.82 Q2279.4 1545.82 2281.21 1542.27 Q2283.04 1538.71 2283.04 1531.6 Q2283.04 1524.47 2281.21 1520.93 Q2279.4 1517.37 2275.77 1517.37 M2275.77 1513.66 Q2281.58 1513.66 2284.63 1518.27 Q2287.71 1522.85 2287.71 1531.6 Q2287.71 1540.33 2284.63 1544.94 Q2281.58 1549.52 2275.77 1549.52 Q2269.96 1549.52 2266.88 1544.94 Q2263.82 1540.33 2263.82 1531.6 Q2263.82 1522.85 2266.88 1518.27 Q2269.96 1513.66 2275.77 1513.66 Z" fill="#000000" fill-rule="nonzero" fill-opacity="1"></path><path clip-path="url(#clip630)" d="M2305.93 1517.37 Q2302.32 1517.37 2300.49 1520.93 Q2298.68 1524.47 2298.68 1531.6 Q2298.68 1538.71 2300.49 1542.27 Q2302.32 1545.82 2305.93 1545.82 Q2309.56 1545.82 2311.37 1542.27 Q2313.2 1538.71 2313.2 1531.6 Q2313.2 1524.47 2311.37 1520.93 Q2309.56 1517.37 2305.93 1517.37 M2305.93 1513.66 Q2311.74 1513.66 2314.8 1518.27 Q2317.87 1522.85 2317.87 1531.6 Q2317.87 1540.33 2314.8 1544.94 Q2311.74 1549.52 2305.93 1549.52 Q2300.12 1549.52 2297.04 1544.94 Q2293.99 1540.33 2293.99 1531.6 Q2293.99 1522.85 2297.04 1518.27 Q2300.12 1513.66 2305.93 1513.66 Z" fill="#000000" fill-rule="nonzero" fill-opacity="1"></path><path clip-path="url(#clip630)" d="M2336.09 1517.37 Q2332.48 1517.37 2330.65 1520.93 Q2328.85 1524.47 2328.85 1531.6 Q2328.85 1538.71 2330.65 1542.27 Q2332.48 1545.82 2336.09 1545.82 Q2339.73 1545.82 2341.53 1542.27 Q2343.36 1538.71 2343.36 1531.6 Q2343.36 1524.47 2341.53 1520.93 Q2339.73 1517.37 2336.09 1517.37 M2336.09 1513.66 Q2341.9 1513.66 2344.96 1518.27 Q2348.04 1522.85 2348.04 1531.6 Q2348.04 1540.33 2344.96 1544.94 Q2341.9 1549.52 2336.09 1549.52 Q2330.28 1549.52 2327.2 1544.94 Q2324.15 1540.33 2324.15 1531.6 Q2324.15 1522.85 2327.2 1518.27 Q2330.28 1513.66 2336.09 1513.66 Z" fill="#000000" fill-rule="nonzero" fill-opacity="1"></path><polyline clip-path="url(#clip632)" style="stroke:#000000; stroke-linecap:round; stroke-linejoin:round; stroke-width:2; stroke-opacity:0.1; fill:none" points="202.177,1448.87 2352.76,1448.87 "></polyline>
<polyline clip-path="url(#clip632)" style="stroke:#000000; stroke-linecap:round; stroke-linejoin:round; stroke-width:2; stroke-opacity:0.1; fill:none" points="202.177,1198.78 2352.76,1198.78 "></polyline>
<polyline clip-path="url(#clip632)" style="stroke:#000000; stroke-linecap:round; stroke-linejoin:round; stroke-width:2; stroke-opacity:0.1; fill:none" points="202.177,948.703 2352.76,948.703 "></polyline>
<polyline clip-path="url(#clip632)" style="stroke:#000000; stroke-linecap:round; stroke-linejoin:round; stroke-width:2; stroke-opacity:0.1; fill:none" points="202.177,698.622 2352.76,698.622 "></polyline>
<polyline clip-path="url(#clip632)" style="stroke:#000000; stroke-linecap:round; stroke-linejoin:round; stroke-width:2; stroke-opacity:0.1; fill:none" points="202.177,448.541 2352.76,448.541 "></polyline>
<polyline clip-path="url(#clip632)" style="stroke:#000000; stroke-linecap:round; stroke-linejoin:round; stroke-width:2; stroke-opacity:0.1; fill:none" points="202.177,198.459 2352.76,198.459 "></polyline>
<polyline clip-path="url(#clip630)" style="stroke:#000000; stroke-linecap:round; stroke-linejoin:round; stroke-width:4; stroke-opacity:1; fill:none" points="202.177,1486.45 202.177,47.2441 "></polyline>
<polyline clip-path="url(#clip630)" style="stroke:#000000; stroke-linecap:round; stroke-linejoin:round; stroke-width:4; stroke-opacity:1; fill:none" points="202.177,1448.87 221.074,1448.87 "></polyline>
<polyline clip-path="url(#clip630)" style="stroke:#000000; stroke-linecap:round; stroke-linejoin:round; stroke-width:4; stroke-opacity:1; fill:none" points="202.177,1198.78 221.074,1198.78 "></polyline>
<polyline clip-path="url(#clip630)" style="stroke:#000000; stroke-linecap:round; stroke-linejoin:round; stroke-width:4; stroke-opacity:1; fill:none" points="202.177,948.703 221.074,948.703 "></polyline>
<polyline clip-path="url(#clip630)" style="stroke:#000000; stroke-linecap:round; stroke-linejoin:round; stroke-width:4; stroke-opacity:1; fill:none" points="202.177,698.622 221.074,698.622 "></polyline>
<polyline clip-path="url(#clip630)" style="stroke:#000000; stroke-linecap:round; stroke-linejoin:round; stroke-width:4; stroke-opacity:1; fill:none" points="202.177,448.541 221.074,448.541 "></polyline>
<polyline clip-path="url(#clip630)" style="stroke:#000000; stroke-linecap:round; stroke-linejoin:round; stroke-width:4; stroke-opacity:1; fill:none" points="202.177,198.459 221.074,198.459 "></polyline>
<path clip-path="url(#clip630)" d="M154.232 1434.66 Q150.621 1434.66 148.793 1438.23 Q146.987 1441.77 146.987 1448.9 Q146.987 1456.01 148.793 1459.57 Q150.621 1463.11 154.232 1463.11 Q157.867 1463.11 159.672 1459.57 Q161.501 1456.01 161.501 1448.9 Q161.501 1441.77 159.672 1438.23 Q157.867 1434.66 154.232 1434.66 M154.232 1430.96 Q160.042 1430.96 163.098 1435.57 Q166.177 1440.15 166.177 1448.9 Q166.177 1457.63 163.098 1462.23 Q160.042 1466.82 154.232 1466.82 Q148.422 1466.82 145.343 1462.23 Q142.288 1457.63 142.288 1448.9 Q142.288 1440.15 145.343 1435.57 Q148.422 1430.96 154.232 1430.96 Z" fill="#000000" fill-rule="nonzero" fill-opacity="1"></path><path clip-path="url(#clip630)" d="M54.5569 1212.13 L62.1958 1212.13 L62.1958 1185.76 L53.8856 1187.43 L53.8856 1183.17 L62.1495 1181.5 L66.8254 1181.5 L66.8254 1212.13 L74.4642 1212.13 L74.4642 1216.06 L54.5569 1216.06 L54.5569 1212.13 Z" fill="#000000" fill-rule="nonzero" fill-opacity="1"></path><path clip-path="url(#clip630)" d="M93.9086 1184.58 Q90.2975 1184.58 88.4688 1188.15 Q86.6632 1191.69 86.6632 1198.82 Q86.6632 1205.93 88.4688 1209.49 Q90.2975 1213.03 93.9086 1213.03 Q97.5428 1213.03 99.3483 1209.49 Q101.177 1205.93 101.177 1198.82 Q101.177 1191.69 99.3483 1188.15 Q97.5428 1184.58 93.9086 1184.58 M93.9086 1180.88 Q99.7187 1180.88 102.774 1185.49 Q105.853 1190.07 105.853 1198.82 Q105.853 1207.55 102.774 1212.15 Q99.7187 1216.74 93.9086 1216.74 Q88.0984 1216.74 85.0197 1212.15 Q81.9642 1207.55 81.9642 1198.82 Q81.9642 1190.07 85.0197 1185.49 Q88.0984 1180.88 93.9086 1180.88 Z" fill="#000000" fill-rule="nonzero" fill-opacity="1"></path><path clip-path="url(#clip630)" d="M124.07 1184.58 Q120.459 1184.58 118.631 1188.15 Q116.825 1191.69 116.825 1198.82 Q116.825 1205.93 118.631 1209.49 Q120.459 1213.03 124.07 1213.03 Q127.705 1213.03 129.51 1209.49 Q131.339 1205.93 131.339 1198.82 Q131.339 1191.69 129.51 1188.15 Q127.705 1184.58 124.07 1184.58 M124.07 1180.88 Q129.881 1180.88 132.936 1185.49 Q136.015 1190.07 136.015 1198.82 Q136.015 1207.55 132.936 1212.15 Q129.881 1216.74 124.07 1216.74 Q118.26 1216.74 115.182 1212.15 Q112.126 1207.55 112.126 1198.82 Q112.126 1190.07 115.182 1185.49 Q118.26 1180.88 124.07 1180.88 Z" fill="#000000" fill-rule="nonzero" fill-opacity="1"></path><path clip-path="url(#clip630)" d="M154.232 1184.58 Q150.621 1184.58 148.793 1188.15 Q146.987 1191.69 146.987 1198.82 Q146.987 1205.93 148.793 1209.49 Q150.621 1213.03 154.232 1213.03 Q157.867 1213.03 159.672 1209.49 Q161.501 1205.93 161.501 1198.82 Q161.501 1191.69 159.672 1188.15 Q157.867 1184.58 154.232 1184.58 M154.232 1180.88 Q160.042 1180.88 163.098 1185.49 Q166.177 1190.07 166.177 1198.82 Q166.177 1207.55 163.098 1212.15 Q160.042 1216.74 154.232 1216.74 Q148.422 1216.74 145.343 1212.15 Q142.288 1207.55 142.288 1198.82 Q142.288 1190.07 145.343 1185.49 Q148.422 1180.88 154.232 1180.88 Z" fill="#000000" fill-rule="nonzero" fill-opacity="1"></path><path clip-path="url(#clip630)" d="M57.7745 962.048 L74.0939 962.048 L74.0939 965.983 L52.1495 965.983 L52.1495 962.048 Q54.8115 959.294 59.3949 954.664 Q64.0013 950.011 65.1819 948.669 Q67.4272 946.146 68.3068 944.409 Q69.2096 942.65 69.2096 940.96 Q69.2096 938.206 67.2652 936.47 Q65.3439 934.734 62.2421 934.734 Q60.043 934.734 57.5893 935.497 Q55.1588 936.261 52.381 937.812 L52.381 933.09 Q55.2051 931.956 57.6588 931.377 Q60.1124 930.798 62.1495 930.798 Q67.5198 930.798 70.7142 933.484 Q73.9087 936.169 73.9087 940.659 Q73.9087 942.789 73.0985 944.71 Q72.3115 946.609 70.205 949.201 Q69.6263 949.872 66.5245 953.09 Q63.4226 956.284 57.7745 962.048 Z" fill="#000000" fill-rule="nonzero" fill-opacity="1"></path><path clip-path="url(#clip630)" d="M93.9086 934.502 Q90.2975 934.502 88.4688 938.067 Q86.6632 941.609 86.6632 948.738 Q86.6632 955.845 88.4688 959.409 Q90.2975 962.951 93.9086 962.951 Q97.5428 962.951 99.3483 959.409 Q101.177 955.845 101.177 948.738 Q101.177 941.609 99.3483 938.067 Q97.5428 934.502 93.9086 934.502 M93.9086 930.798 Q99.7187 930.798 102.774 935.405 Q105.853 939.988 105.853 948.738 Q105.853 957.465 102.774 962.071 Q99.7187 966.655 93.9086 966.655 Q88.0984 966.655 85.0197 962.071 Q81.9642 957.465 81.9642 948.738 Q81.9642 939.988 85.0197 935.405 Q88.0984 930.798 93.9086 930.798 Z" fill="#000000" fill-rule="nonzero" fill-opacity="1"></path><path clip-path="url(#clip630)" d="M124.07 934.502 Q120.459 934.502 118.631 938.067 Q116.825 941.609 116.825 948.738 Q116.825 955.845 118.631 959.409 Q120.459 962.951 124.07 962.951 Q127.705 962.951 129.51 959.409 Q131.339 955.845 131.339 948.738 Q131.339 941.609 129.51 938.067 Q127.705 934.502 124.07 934.502 M124.07 930.798 Q129.881 930.798 132.936 935.405 Q136.015 939.988 136.015 948.738 Q136.015 957.465 132.936 962.071 Q129.881 966.655 124.07 966.655 Q118.26 966.655 115.182 962.071 Q112.126 957.465 112.126 948.738 Q112.126 939.988 115.182 935.405 Q118.26 930.798 124.07 930.798 Z" fill="#000000" fill-rule="nonzero" fill-opacity="1"></path><path clip-path="url(#clip630)" d="M154.232 934.502 Q150.621 934.502 148.793 938.067 Q146.987 941.609 146.987 948.738 Q146.987 955.845 148.793 959.409 Q150.621 962.951 154.232 962.951 Q157.867 962.951 159.672 959.409 Q161.501 955.845 161.501 948.738 Q161.501 941.609 159.672 938.067 Q157.867 934.502 154.232 934.502 M154.232 930.798 Q160.042 930.798 163.098 935.405 Q166.177 939.988 166.177 948.738 Q166.177 957.465 163.098 962.071 Q160.042 966.655 154.232 966.655 Q148.422 966.655 145.343 962.071 Q142.288 957.465 142.288 948.738 Q142.288 939.988 145.343 935.405 Q148.422 930.798 154.232 930.798 Z" fill="#000000" fill-rule="nonzero" fill-opacity="1"></path><path clip-path="url(#clip630)" d="M67.9133 697.268 Q71.2698 697.985 73.1448 700.254 Q75.0429 702.523 75.0429 705.856 Q75.0429 710.972 71.5244 713.772 Q68.0059 716.573 61.5245 716.573 Q59.3486 716.573 57.0338 716.134 Q54.7421 715.717 52.2884 714.86 L52.2884 710.347 Q54.2328 711.481 56.5477 712.059 Q58.8625 712.638 61.3856 712.638 Q65.7837 712.638 68.0754 710.902 Q70.3902 709.166 70.3902 705.856 Q70.3902 702.8 68.2374 701.087 Q66.1078 699.351 62.2884 699.351 L58.2606 699.351 L58.2606 695.509 L62.4735 695.509 Q65.9226 695.509 67.7513 694.143 Q69.58 692.754 69.58 690.161 Q69.58 687.499 67.6819 686.087 Q65.8069 684.652 62.2884 684.652 Q60.3671 684.652 58.168 685.069 Q55.969 685.486 53.3301 686.365 L53.3301 682.199 Q55.9921 681.458 58.3069 681.087 Q60.6449 680.717 62.705 680.717 Q68.0291 680.717 71.1309 683.148 Q74.2327 685.555 74.2327 689.675 Q74.2327 692.546 72.5892 694.536 Q70.9457 696.504 67.9133 697.268 Z" fill="#000000" fill-rule="nonzero" fill-opacity="1"></path><path clip-path="url(#clip630)" d="M93.9086 684.421 Q90.2975 684.421 88.4688 687.986 Q86.6632 691.527 86.6632 698.657 Q86.6632 705.763 88.4688 709.328 Q90.2975 712.87 93.9086 712.87 Q97.5428 712.87 99.3483 709.328 Q101.177 705.763 101.177 698.657 Q101.177 691.527 99.3483 687.986 Q97.5428 684.421 93.9086 684.421 M93.9086 680.717 Q99.7187 680.717 102.774 685.324 Q105.853 689.907 105.853 698.657 Q105.853 707.384 102.774 711.99 Q99.7187 716.573 93.9086 716.573 Q88.0984 716.573 85.0197 711.99 Q81.9642 707.384 81.9642 698.657 Q81.9642 689.907 85.0197 685.324 Q88.0984 680.717 93.9086 680.717 Z" fill="#000000" fill-rule="nonzero" fill-opacity="1"></path><path clip-path="url(#clip630)" d="M124.07 684.421 Q120.459 684.421 118.631 687.986 Q116.825 691.527 116.825 698.657 Q116.825 705.763 118.631 709.328 Q120.459 712.87 124.07 712.87 Q127.705 712.87 129.51 709.328 Q131.339 705.763 131.339 698.657 Q131.339 691.527 129.51 687.986 Q127.705 684.421 124.07 684.421 M124.07 680.717 Q129.881 680.717 132.936 685.324 Q136.015 689.907 136.015 698.657 Q136.015 707.384 132.936 711.99 Q129.881 716.573 124.07 716.573 Q118.26 716.573 115.182 711.99 Q112.126 707.384 112.126 698.657 Q112.126 689.907 115.182 685.324 Q118.26 680.717 124.07 680.717 Z" fill="#000000" fill-rule="nonzero" fill-opacity="1"></path><path clip-path="url(#clip630)" d="M154.232 684.421 Q150.621 684.421 148.793 687.986 Q146.987 691.527 146.987 698.657 Q146.987 705.763 148.793 709.328 Q150.621 712.87 154.232 712.87 Q157.867 712.87 159.672 709.328 Q161.501 705.763 161.501 698.657 Q161.501 691.527 159.672 687.986 Q157.867 684.421 154.232 684.421 M154.232 680.717 Q160.042 680.717 163.098 685.324 Q166.177 689.907 166.177 698.657 Q166.177 707.384 163.098 711.99 Q160.042 716.573 154.232 716.573 Q148.422 716.573 145.343 711.99 Q142.288 707.384 142.288 698.657 Q142.288 689.907 145.343 685.324 Q148.422 680.717 154.232 680.717 Z" fill="#000000" fill-rule="nonzero" fill-opacity="1"></path><path clip-path="url(#clip630)" d="M66.5939 435.335 L54.7884 453.784 L66.5939 453.784 L66.5939 435.335 M65.367 431.261 L71.2466 431.261 L71.2466 453.784 L76.1772 453.784 L76.1772 457.673 L71.2466 457.673 L71.2466 465.821 L66.5939 465.821 L66.5939 457.673 L50.9921 457.673 L50.9921 453.159 L65.367 431.261 Z" fill="#000000" fill-rule="nonzero" fill-opacity="1"></path><path clip-path="url(#clip630)" d="M93.9086 434.339 Q90.2975 434.339 88.4688 437.904 Q86.6632 441.446 86.6632 448.575 Q86.6632 455.682 88.4688 459.247 Q90.2975 462.788 93.9086 462.788 Q97.5428 462.788 99.3483 459.247 Q101.177 455.682 101.177 448.575 Q101.177 441.446 99.3483 437.904 Q97.5428 434.339 93.9086 434.339 M93.9086 430.636 Q99.7187 430.636 102.774 435.242 Q105.853 439.825 105.853 448.575 Q105.853 457.302 102.774 461.909 Q99.7187 466.492 93.9086 466.492 Q88.0984 466.492 85.0197 461.909 Q81.9642 457.302 81.9642 448.575 Q81.9642 439.825 85.0197 435.242 Q88.0984 430.636 93.9086 430.636 Z" fill="#000000" fill-rule="nonzero" fill-opacity="1"></path><path clip-path="url(#clip630)" d="M124.07 434.339 Q120.459 434.339 118.631 437.904 Q116.825 441.446 116.825 448.575 Q116.825 455.682 118.631 459.247 Q120.459 462.788 124.07 462.788 Q127.705 462.788 129.51 459.247 Q131.339 455.682 131.339 448.575 Q131.339 441.446 129.51 437.904 Q127.705 434.339 124.07 434.339 M124.07 430.636 Q129.881 430.636 132.936 435.242 Q136.015 439.825 136.015 448.575 Q136.015 457.302 132.936 461.909 Q129.881 466.492 124.07 466.492 Q118.26 466.492 115.182 461.909 Q112.126 457.302 112.126 448.575 Q112.126 439.825 115.182 435.242 Q118.26 430.636 124.07 430.636 Z" fill="#000000" fill-rule="nonzero" fill-opacity="1"></path><path clip-path="url(#clip630)" d="M154.232 434.339 Q150.621 434.339 148.793 437.904 Q146.987 441.446 146.987 448.575 Q146.987 455.682 148.793 459.247 Q150.621 462.788 154.232 462.788 Q157.867 462.788 159.672 459.247 Q161.501 455.682 161.501 448.575 Q161.501 441.446 159.672 437.904 Q157.867 434.339 154.232 434.339 M154.232 430.636 Q160.042 430.636 163.098 435.242 Q166.177 439.825 166.177 448.575 Q166.177 457.302 163.098 461.909 Q160.042 466.492 154.232 466.492 Q148.422 466.492 145.343 461.909 Q142.288 457.302 142.288 448.575 Q142.288 439.825 145.343 435.242 Q148.422 430.636 154.232 430.636 Z" fill="#000000" fill-rule="nonzero" fill-opacity="1"></path><path clip-path="url(#clip630)" d="M53.793 181.179 L72.1494 181.179 L72.1494 185.115 L58.0754 185.115 L58.0754 193.587 Q59.0939 193.24 60.1124 193.077 Q61.131 192.892 62.1495 192.892 Q67.9365 192.892 71.3161 196.064 Q74.6957 199.235 74.6957 204.651 Q74.6957 210.23 71.2235 213.332 Q67.7513 216.411 61.4319 216.411 Q59.256 216.411 56.9875 216.04 Q54.7421 215.67 52.3347 214.929 L52.3347 210.23 Q54.418 211.364 56.6402 211.92 Q58.8625 212.476 61.3393 212.476 Q65.3439 212.476 67.6819 210.369 Q70.0198 208.263 70.0198 204.651 Q70.0198 201.04 67.6819 198.934 Q65.3439 196.827 61.3393 196.827 Q59.4643 196.827 57.5893 197.244 Q55.7375 197.661 53.793 198.54 L53.793 181.179 Z" fill="#000000" fill-rule="nonzero" fill-opacity="1"></path><path clip-path="url(#clip630)" d="M93.9086 184.258 Q90.2975 184.258 88.4688 187.823 Q86.6632 191.365 86.6632 198.494 Q86.6632 205.601 88.4688 209.165 Q90.2975 212.707 93.9086 212.707 Q97.5428 212.707 99.3483 209.165 Q101.177 205.601 101.177 198.494 Q101.177 191.365 99.3483 187.823 Q97.5428 184.258 93.9086 184.258 M93.9086 180.554 Q99.7187 180.554 102.774 185.161 Q105.853 189.744 105.853 198.494 Q105.853 207.221 102.774 211.827 Q99.7187 216.411 93.9086 216.411 Q88.0984 216.411 85.0197 211.827 Q81.9642 207.221 81.9642 198.494 Q81.9642 189.744 85.0197 185.161 Q88.0984 180.554 93.9086 180.554 Z" fill="#000000" fill-rule="nonzero" fill-opacity="1"></path><path clip-path="url(#clip630)" d="M124.07 184.258 Q120.459 184.258 118.631 187.823 Q116.825 191.365 116.825 198.494 Q116.825 205.601 118.631 209.165 Q120.459 212.707 124.07 212.707 Q127.705 212.707 129.51 209.165 Q131.339 205.601 131.339 198.494 Q131.339 191.365 129.51 187.823 Q127.705 184.258 124.07 184.258 M124.07 180.554 Q129.881 180.554 132.936 185.161 Q136.015 189.744 136.015 198.494 Q136.015 207.221 132.936 211.827 Q129.881 216.411 124.07 216.411 Q118.26 216.411 115.182 211.827 Q112.126 207.221 112.126 198.494 Q112.126 189.744 115.182 185.161 Q118.26 180.554 124.07 180.554 Z" fill="#000000" fill-rule="nonzero" fill-opacity="1"></path><path clip-path="url(#clip630)" d="M154.232 184.258 Q150.621 184.258 148.793 187.823 Q146.987 191.365 146.987 198.494 Q146.987 205.601 148.793 209.165 Q150.621 212.707 154.232 212.707 Q157.867 212.707 159.672 209.165 Q161.501 205.601 161.501 198.494 Q161.501 191.365 159.672 187.823 Q157.867 184.258 154.232 184.258 M154.232 180.554 Q160.042 180.554 163.098 185.161 Q166.177 189.744 166.177 198.494 Q166.177 207.221 163.098 211.827 Q160.042 216.411 154.232 216.411 Q148.422 216.411 145.343 211.827 Q142.288 207.221 142.288 198.494 Q142.288 189.744 145.343 185.161 Q148.422 180.554 154.232 180.554 Z" fill="#000000" fill-rule="nonzero" fill-opacity="1"></path><polyline clip-path="url(#clip632)" style="stroke:#009af9; stroke-linecap:round; stroke-linejoin:round; stroke-width:4; stroke-opacity:1; fill:none" points="263.042,1445.72 325.15,1436.28 428.662,1427.92 635.688,1389.47 946.226,1201.94 1256.76,1028.21 1877.84,589.405 2291.89,87.9763 "></polyline>
<path clip-path="url(#clip630)" d="M273.863 198.898 L541.351 198.898 L541.351 95.2176 L273.863 95.2176  Z" fill="#ffffff" fill-rule="evenodd" fill-opacity="1"></path>
<polyline clip-path="url(#clip630)" style="stroke:#000000; stroke-linecap:round; stroke-linejoin:round; stroke-width:4; stroke-opacity:1; fill:none" points="273.863,198.898 541.351,198.898 541.351,95.2176 273.863,95.2176 273.863,198.898 "></polyline>
<polyline clip-path="url(#clip630)" style="stroke:#009af9; stroke-linecap:round; stroke-linejoin:round; stroke-width:4; stroke-opacity:1; fill:none" points="297.758,147.058 441.13,147.058 "></polyline>
<path clip-path="url(#clip630)" d="M478.868 166.745 Q477.062 171.375 475.349 172.787 Q473.636 174.199 470.766 174.199 L467.363 174.199 L467.363 170.634 L469.863 170.634 Q471.622 170.634 472.595 169.8 Q473.567 168.967 474.747 165.865 L475.511 163.921 L465.025 138.412 L469.539 138.412 L477.641 158.689 L485.743 138.412 L490.257 138.412 L478.868 166.745 Z" fill="#000000" fill-rule="nonzero" fill-opacity="1"></path><path clip-path="url(#clip630)" d="M497.548 160.402 L505.187 160.402 L505.187 134.037 L496.877 135.703 L496.877 131.444 L505.141 129.778 L509.817 129.778 L509.817 160.402 L517.456 160.402 L517.456 164.338 L497.548 164.338 L497.548 160.402 Z" fill="#000000" fill-rule="nonzero" fill-opacity="1"></path></svg>