<svg xmlns="http://www.w3.org/2000/svg" xmlns:xlink="http://www.w3.org/1999/xlink" width="600" height="400" viewBox="0 0 2400 1600">
<defs>
  <clipPath id="clip590">
    <rect x="0" y="0" width="2400" height="1600"></rect>
  </clipPath>
</defs>
<path clip-path="url(#clip590)" d="M0 1600 L2400 1600 L2400 0 L0 0  Z" fill="#ffffff" fill-rule="evenodd" fill-opacity="1"></path>
<defs>
  <clipPath id="clip591">
    <rect x="480" y="0" width="1681" height="1600"></rect>
  </clipPath>
</defs>
<path clip-path="url(#clip590)" d="M201.019 1486.45 L2352.76 1486.45 L2352.76 47.2441 L201.019 47.2441  Z" fill="#ffffff" fill-rule="evenodd" fill-opacity="1"></path>
<defs>
  <clipPath id="clip592">
    <rect x="201" y="47" width="2153" height="1440"></rect>
  </clipPath>
</defs>
<polyline clip-path="url(#clip592)" style="stroke:#000000; stroke-linecap:round; stroke-linejoin:round; stroke-width:2; stroke-opacity:0.1; fill:none" points="220.49,1486.45 220.49,47.2441 "></polyline>
<polyline clip-path="url(#clip592)" style="stroke:#000000; stroke-linecap:round; stroke-linejoin:round; stroke-width:2; stroke-opacity:0.1; fill:none" points="738.332,1486.45 738.332,47.2441 "></polyline>
<polyline clip-path="url(#clip592)" style="stroke:#000000; stroke-linecap:round; stroke-linejoin:round; stroke-width:2; stroke-opacity:0.1; fill:none" points="1256.17,1486.45 1256.17,47.2441 "></polyline>
<polyline clip-path="url(#clip592)" style="stroke:#000000; stroke-linecap:round; stroke-linejoin:round; stroke-width:2; stroke-opacity:0.1; fill:none" points="1774.02,1486.45 1774.02,47.2441 "></polyline>
<polyline clip-path="url(#clip592)" style="stroke:#000000; stroke-linecap:round; stroke-linejoin:round; stroke-width:2; stroke-opacity:0.1; fill:none" points="2291.86,1486.45 2291.86,47.2441 "></polyline>
<polyline clip-path="url(#clip590)" style="stroke:#000000; stroke-linecap:round; stroke-linejoin:round; stroke-width:4; stroke-opacity:1; fill:none" points="201.019,1486.45 2352.76,1486.45 "></polyline>
<polyline clip-path="url(#clip590)" style="stroke:#000000; stroke-linecap:round; stroke-linejoin:round; stroke-width:4; stroke-opacity:1; fill:none" points="220.49,1486.45 220.49,1467.55 "></polyline>
<polyline clip-path="url(#clip590)" style="stroke:#000000; stroke-linecap:round; stroke-linejoin:round; stroke-width:4; stroke-opacity:1; fill:none" points="738.332,1486.45 738.332,1467.55 "></polyline>
<polyline clip-path="url(#clip590)" style="stroke:#000000; stroke-linecap:round; stroke-linejoin:round; stroke-width:4; stroke-opacity:1; fill:none" points="1256.17,1486.45 1256.17,1467.55 "></polyline>
<polyline clip-path="url(#clip590)" style="stroke:#000000; stroke-linecap:round; stroke-linejoin:round; stroke-width:4; stroke-opacity:1; fill:none" points="1774.02,1486.45 1774.02,1467.55 "></polyline>
<polyline clip-path="url(#clip590)" style="stroke:#000000; stroke-linecap:round; stroke-linejoin:round; stroke-width:4; stroke-opacity:1; fill:none" points="2291.86,1486.45 2291.86,1467.55 "></polyline>
<path clip-path="url(#clip590)" d="M220.49 1517.37 Q216.879 1517.37 215.05 1520.93 Q213.245 1524.47 213.245 1531.6 Q213.245 1538.71 215.05 1542.27 Q216.879 1545.82 220.49 1545.82 Q224.124 1545.82 225.93 1542.27 Q227.759 1538.71 227.759 1531.6 Q227.759 1524.47 225.93 1520.93 Q224.124 1517.37 220.49 1517.37 M220.49 1513.66 Q226.3 1513.66 229.356 1518.27 Q232.435 1522.85 232.435 1531.6 Q232.435 1540.33 229.356 1544.94 Q226.3 1549.52 220.49 1549.52 Q214.68 1549.52 211.601 1544.94 Q208.546 1540.33 208.546 1531.6 Q208.546 1522.85 211.601 1518.27 Q214.68 1513.66 220.49 1513.66 Z" fill="#000000" fill-rule="nonzero" fill-opacity="1"></path><path clip-path="url(#clip590)" d="M702.024 1544.91 L718.344 1544.91 L718.344 1548.85 L696.399 1548.85 L696.399 1544.91 Q699.061 1542.16 703.645 1537.53 Q708.251 1532.88 709.432 1531.53 Q711.677 1529.01 712.557 1527.27 Q713.459 1525.51 713.459 1523.82 Q713.459 1521.07 711.515 1519.33 Q709.594 1517.6 706.492 1517.6 Q704.293 1517.6 701.839 1518.36 Q699.409 1519.13 696.631 1520.68 L696.631 1515.95 Q699.455 1514.82 701.909 1514.24 Q704.362 1513.66 706.399 1513.66 Q711.77 1513.66 714.964 1516.35 Q718.159 1519.03 718.159 1523.52 Q718.159 1525.65 717.348 1527.57 Q716.561 1529.47 714.455 1532.07 Q713.876 1532.74 710.774 1535.95 Q707.672 1539.15 702.024 1544.91 Z" fill="#000000" fill-rule="nonzero" fill-opacity="1"></path><path clip-path="url(#clip590)" d="M728.205 1514.29 L746.561 1514.29 L746.561 1518.22 L732.487 1518.22 L732.487 1526.7 Q733.506 1526.35 734.524 1526.19 Q735.543 1526 736.561 1526 Q742.348 1526 745.728 1529.17 Q749.107 1532.34 749.107 1537.76 Q749.107 1543.34 745.635 1546.44 Q742.163 1549.52 735.844 1549.52 Q733.668 1549.52 731.399 1549.15 Q729.154 1548.78 726.746 1548.04 L726.746 1543.34 Q728.83 1544.47 731.052 1545.03 Q733.274 1545.58 735.751 1545.58 Q739.756 1545.58 742.094 1543.48 Q744.432 1541.37 744.432 1537.76 Q744.432 1534.15 742.094 1532.04 Q739.756 1529.94 735.751 1529.94 Q733.876 1529.94 732.001 1530.35 Q730.149 1530.77 728.205 1531.65 L728.205 1514.29 Z" fill="#000000" fill-rule="nonzero" fill-opacity="1"></path><path clip-path="url(#clip590)" d="M768.32 1517.37 Q764.709 1517.37 762.881 1520.93 Q761.075 1524.47 761.075 1531.6 Q761.075 1538.71 762.881 1542.27 Q764.709 1545.82 768.32 1545.82 Q771.955 1545.82 773.76 1542.27 Q775.589 1538.71 775.589 1531.6 Q775.589 1524.47 773.76 1520.93 Q771.955 1517.37 768.32 1517.37 M768.32 1513.66 Q774.13 1513.66 777.186 1518.27 Q780.265 1522.85 780.265 1531.6 Q780.265 1540.33 777.186 1544.94 Q774.13 1549.52 768.32 1549.52 Q762.51 1549.52 759.431 1544.94 Q756.376 1540.33 756.376 1531.6 Q756.376 1522.85 759.431 1518.27 Q762.51 1513.66 768.32 1513.66 Z" fill="#000000" fill-rule="nonzero" fill-opacity="1"></path><path clip-path="url(#clip590)" d="M1215.79 1514.29 L1234.15 1514.29 L1234.15 1518.22 L1220.07 1518.22 L1220.07 1526.7 Q1221.09 1526.35 1222.11 1526.19 Q1223.13 1526 1224.15 1526 Q1229.94 1526 1233.32 1529.17 Q1236.69 1532.34 1236.69 1537.76 Q1236.69 1543.34 1233.22 1546.44 Q1229.75 1549.52 1223.43 1549.52 Q1221.26 1549.52 1218.99 1549.15 Q1216.74 1548.78 1214.33 1548.04 L1214.33 1543.34 Q1216.42 1544.47 1218.64 1545.03 Q1220.86 1545.58 1223.34 1545.58 Q1227.34 1545.58 1229.68 1543.48 Q1232.02 1541.37 1232.02 1537.76 Q1232.02 1534.15 1229.68 1532.04 Q1227.34 1529.94 1223.34 1529.94 Q1221.46 1529.94 1219.59 1530.35 Q1217.74 1530.77 1215.79 1531.65 L1215.79 1514.29 Z" fill="#000000" fill-rule="nonzero" fill-opacity="1"></path><path clip-path="url(#clip590)" d="M1255.91 1517.37 Q1252.3 1517.37 1250.47 1520.93 Q1248.66 1524.47 1248.66 1531.6 Q1248.66 1538.71 1250.47 1542.27 Q1252.3 1545.82 1255.91 1545.82 Q1259.54 1545.82 1261.35 1542.27 Q1263.18 1538.71 1263.18 1531.6 Q1263.18 1524.47 1261.35 1520.93 Q1259.54 1517.37 1255.91 1517.37 M1255.91 1513.66 Q1261.72 1513.66 1264.77 1518.27 Q1267.85 1522.85 1267.85 1531.6 Q1267.85 1540.33 1264.77 1544.94 Q1261.72 1549.52 1255.91 1549.52 Q1250.1 1549.52 1247.02 1544.94 Q1243.96 1540.33 1243.96 1531.6 Q1243.96 1522.85 1247.02 1518.27 Q1250.1 1513.66 1255.91 1513.66 Z" fill="#000000" fill-rule="nonzero" fill-opacity="1"></path><path clip-path="url(#clip590)" d="M1286.07 1517.37 Q1282.46 1517.37 1280.63 1520.93 Q1278.82 1524.47 1278.82 1531.6 Q1278.82 1538.71 1280.63 1542.27 Q1282.46 1545.82 1286.07 1545.82 Q1289.7 1545.82 1291.51 1542.27 Q1293.34 1538.71 1293.34 1531.6 Q1293.34 1524.47 1291.51 1520.93 Q1289.7 1517.37 1286.07 1517.37 M1286.07 1513.66 Q1291.88 1513.66 1294.94 1518.27 Q1298.01 1522.85 1298.01 1531.6 Q1298.01 1540.33 1294.94 1544.94 Q1291.88 1549.52 1286.07 1549.52 Q1280.26 1549.52 1277.18 1544.94 Q1274.13 1540.33 1274.13 1531.6 Q1274.13 1522.85 1277.18 1518.27 Q1280.26 1513.66 1286.07 1513.66 Z" fill="#000000" fill-rule="nonzero" fill-opacity="1"></path><path clip-path="url(#clip590)" d="M1732.29 1514.29 L1754.51 1514.29 L1754.51 1516.28 L1741.97 1548.85 L1737.08 1548.85 L1748.89 1518.22 L1732.29 1518.22 L1732.29 1514.29 Z" fill="#000000" fill-rule="nonzero" fill-opacity="1"></path><path clip-path="url(#clip590)" d="M1763.68 1514.29 L1782.04 1514.29 L1782.04 1518.22 L1767.96 1518.22 L1767.96 1526.7 Q1768.98 1526.35 1770 1526.19 Q1771.02 1526 1772.04 1526 Q1777.82 1526 1781.2 1529.17 Q1784.58 1532.34 1784.58 1537.76 Q1784.58 1543.34 1781.11 1546.44 Q1777.64 1549.52 1771.32 1549.52 Q1769.14 1549.52 1766.87 1549.15 Q1764.63 1548.78 1762.22 1548.04 L1762.22 1543.34 Q1764.31 1544.47 1766.53 1545.03 Q1768.75 1545.58 1771.23 1545.58 Q1775.23 1545.58 1777.57 1543.48 Q1779.91 1541.37 1779.91 1537.76 Q1779.91 1534.15 1777.57 1532.04 Q1775.23 1529.94 1771.23 1529.94 Q1769.35 1529.94 1767.48 1530.35 Q1765.62 1530.77 1763.68 1531.65 L1763.68 1514.29 Z" fill="#000000" fill-rule="nonzero" fill-opacity="1"></path><path clip-path="url(#clip590)" d="M1803.8 1517.37 Q1800.18 1517.37 1798.36 1520.93 Q1796.55 1524.47 1796.55 1531.6 Q1796.55 1538.71 1798.36 1542.27 Q1800.18 1545.82 1803.8 1545.82 Q1807.43 1545.82 1809.24 1542.27 Q1811.06 1538.71 1811.06 1531.6 Q1811.06 1524.47 1809.24 1520.93 Q1807.43 1517.37 1803.8 1517.37 M1803.8 1513.66 Q1809.61 1513.66 1812.66 1518.27 Q1815.74 1522.85 1815.74 1531.6 Q1815.74 1540.33 1812.66 1544.94 Q1809.61 1549.52 1803.8 1549.52 Q1797.99 1549.52 1794.91 1544.94 Q1791.85 1540.33 1791.85 1531.6 Q1791.85 1522.85 1794.91 1518.27 Q1797.99 1513.66 1803.8 1513.66 Z" fill="#000000" fill-rule="nonzero" fill-opacity="1"></path><path clip-path="url(#clip590)" d="M2236.38 1544.91 L2244.02 1544.91 L2244.02 1518.55 L2235.71 1520.21 L2235.71 1515.95 L2243.98 1514.29 L2248.65 1514.29 L2248.65 1544.91 L2256.29 1544.91 L2256.29 1548.85 L2236.38 1548.85 L2236.38 1544.91 Z" fill="#000000" fill-rule="nonzero" fill-opacity="1"></path><path clip-path="url(#clip590)" d="M2275.74 1517.37 Q2272.12 1517.37 2270.3 1520.93 Q2268.49 1524.47 2268.49 1531.6 Q2268.49 1538.71 2270.3 1542.27 Q2272.12 1545.82 2275.74 1545.82 Q2279.37 1545.82 2281.17 1542.27 Q2283 1538.71 2283 1531.6 Q2283 1524.47 2281.17 1520.93 Q2279.37 1517.37 2275.74 1517.37 M2275.74 1513.66 Q2281.55 1513.66 2284.6 1518.27 Q2287.68 1522.85 2287.68 1531.6 Q2287.68 1540.33 2284.6 1544.94 Q2281.55 1549.52 2275.74 1549.52 Q2269.92 1549.52 2266.85 1544.94 Q2263.79 1540.33 2263.79 1531.6 Q2263.79 1522.85 2266.85 1518.27 Q2269.92 1513.66 2275.74 1513.66 Z" fill="#000000" fill-rule="nonzero" fill-opacity="1"></path><path clip-path="url(#clip590)" d="M2305.9 1517.37 Q2302.29 1517.37 2300.46 1520.93 Q2298.65 1524.47 2298.65 1531.6 Q2298.65 1538.71 2300.46 1542.27 Q2302.29 1545.82 2305.9 1545.82 Q2309.53 1545.82 2311.34 1542.27 Q2313.17 1538.71 2313.17 1531.6 Q2313.17 1524.47 2311.34 1520.93 Q2309.53 1517.37 2305.9 1517.37 M2305.9 1513.66 Q2311.71 1513.66 2314.76 1518.27 Q2317.84 1522.85 2317.84 1531.6 Q2317.84 1540.33 2314.76 1544.94 Q2311.71 1549.52 2305.9 1549.52 Q2300.09 1549.52 2297.01 1544.94 Q2293.95 1540.33 2293.95 1531.6 Q2293.95 1522.85 2297.01 1518.27 Q2300.09 1513.66 2305.9 1513.66 Z" fill="#000000" fill-rule="nonzero" fill-opacity="1"></path><path clip-path="url(#clip590)" d="M2336.06 1517.37 Q2332.45 1517.37 2330.62 1520.93 Q2328.81 1524.47 2328.81 1531.6 Q2328.81 1538.71 2330.62 1542.27 Q2332.45 1545.82 2336.06 1545.82 Q2339.69 1545.82 2341.5 1542.27 Q2343.33 1538.71 2343.33 1531.6 Q2343.33 1524.47 2341.5 1520.93 Q2339.69 1517.37 2336.06 1517.37 M2336.06 1513.66 Q2341.87 1513.66 2344.92 1518.27 Q2348 1522.85 2348 1531.6 Q2348 1540.33 2344.92 1544.94 Q2341.87 1549.52 2336.06 1549.52 Q2330.25 1549.52 2327.17 1544.94 Q2324.11 1540.33 2324.11 1531.6 Q2324.11 1522.85 2327.17 1518.27 Q2330.25 1513.66 2336.06 1513.66 Z" fill="#000000" fill-rule="nonzero" fill-opacity="1"></path><polyline clip-path="url(#clip592)" style="stroke:#000000; stroke-linecap:round; stroke-linejoin:round; stroke-width:2; stroke-opacity:0.1; fill:none" points="201.019,1274.69 2352.76,1274.69 "></polyline>
<polyline clip-path="url(#clip592)" style="stroke:#000000; stroke-linecap:round; stroke-linejoin:round; stroke-width:2; stroke-opacity:0.1; fill:none" points="201.019,1025.01 2352.76,1025.01 "></polyline>
<polyline clip-path="url(#clip592)" style="stroke:#000000; stroke-linecap:round; stroke-linejoin:round; stroke-width:2; stroke-opacity:0.1; fill:none" points="201.019,775.335 2352.76,775.335 "></polyline>
<polyline clip-path="url(#clip592)" style="stroke:#000000; stroke-linecap:round; stroke-linejoin:round; stroke-width:2; stroke-opacity:0.1; fill:none" points="201.019,525.659 2352.76,525.659 "></polyline>
<polyline clip-path="url(#clip592)" style="stroke:#000000; stroke-linecap:round; stroke-linejoin:round; stroke-width:2; stroke-opacity:0.1; fill:none" points="201.019,275.982 2352.76,275.982 "></polyline>
<polyline clip-path="url(#clip590)" style="stroke:#000000; stroke-linecap:round; stroke-linejoin:round; stroke-width:4; stroke-opacity:1; fill:none" points="201.019,1486.45 201.019,47.2441 "></polyline>
<polyline clip-path="url(#clip590)" style="stroke:#000000; stroke-linecap:round; stroke-linejoin:round; stroke-width:4; stroke-opacity:1; fill:none" points="201.019,1274.69 219.917,1274.69 "></polyline>
<polyline clip-path="url(#clip590)" style="stroke:#000000; stroke-linecap:round; stroke-linejoin:round; stroke-width:4; stroke-opacity:1; fill:none" points="201.019,1025.01 219.917,1025.01 "></polyline>
<polyline clip-path="url(#clip590)" style="stroke:#000000; stroke-linecap:round; stroke-linejoin:round; stroke-width:4; stroke-opacity:1; fill:none" points="201.019,775.335 219.917,775.335 "></polyline>
<polyline clip-path="url(#clip590)" style="stroke:#000000; stroke-linecap:round; stroke-linejoin:round; stroke-width:4; stroke-opacity:1; fill:none" points="201.019,525.659 219.917,525.659 "></polyline>
<polyline clip-path="url(#clip590)" style="stroke:#000000; stroke-linecap:round; stroke-linejoin:round; stroke-width:4; stroke-opacity:1; fill:none" points="201.019,275.982 219.917,275.982 "></polyline>
<path clip-path="url(#clip590)" d="M82.7975 1257.41 L101.154 1257.41 L101.154 1261.34 L87.0799 1261.34 L87.0799 1269.81 Q88.0984 1269.47 89.1169 1269.31 Q90.1354 1269.12 91.1539 1269.12 Q96.941 1269.12 100.321 1272.29 Q103.7 1275.46 103.7 1280.88 Q103.7 1286.46 100.228 1289.56 Q96.7558 1292.64 90.4364 1292.64 Q88.2604 1292.64 85.9919 1292.27 Q83.7466 1291.9 81.3392 1291.16 L81.3392 1286.46 Q83.4225 1287.59 85.6447 1288.15 Q87.8669 1288.7 90.3438 1288.7 Q94.3484 1288.7 96.6863 1286.6 Q99.0243 1284.49 99.0243 1280.88 Q99.0243 1277.27 96.6863 1275.16 Q94.3484 1273.06 90.3438 1273.06 Q88.4688 1273.06 86.5938 1273.47 Q84.7419 1273.89 82.7975 1274.77 L82.7975 1257.41 Z" fill="#000000" fill-rule="nonzero" fill-opacity="1"></path><path clip-path="url(#clip590)" d="M122.913 1260.49 Q119.302 1260.49 117.473 1264.05 Q115.668 1267.59 115.668 1274.72 Q115.668 1281.83 117.473 1285.39 Q119.302 1288.94 122.913 1288.94 Q126.547 1288.94 128.353 1285.39 Q130.182 1281.83 130.182 1274.72 Q130.182 1267.59 128.353 1264.05 Q126.547 1260.49 122.913 1260.49 M122.913 1256.78 Q128.723 1256.78 131.779 1261.39 Q134.857 1265.97 134.857 1274.72 Q134.857 1283.45 131.779 1288.06 Q128.723 1292.64 122.913 1292.64 Q117.103 1292.64 114.024 1288.06 Q110.969 1283.45 110.969 1274.72 Q110.969 1265.97 114.024 1261.39 Q117.103 1256.78 122.913 1256.78 Z" fill="#000000" fill-rule="nonzero" fill-opacity="1"></path><path clip-path="url(#clip590)" d="M153.075 1260.49 Q149.464 1260.49 147.635 1264.05 Q145.83 1267.59 145.83 1274.72 Q145.83 1281.83 147.635 1285.39 Q149.464 1288.94 153.075 1288.94 Q156.709 1288.94 158.515 1285.39 Q160.343 1281.83 160.343 1274.72 Q160.343 1267.59 158.515 1264.05 Q156.709 1260.49 153.075 1260.49 M153.075 1256.78 Q158.885 1256.78 161.941 1261.39 Q165.019 1265.97 165.019 1274.72 Q165.019 1283.45 161.941 1288.06 Q158.885 1292.64 153.075 1292.64 Q147.265 1292.64 144.186 1288.06 Q141.131 1283.45 141.131 1274.72 Q141.131 1265.97 144.186 1261.39 Q147.265 1256.78 153.075 1256.78 Z" fill="#000000" fill-rule="nonzero" fill-opacity="1"></path><path clip-path="url(#clip590)" d="M53.3995 1038.36 L61.0384 1038.36 L61.0384 1011.99 L52.7282 1013.66 L52.7282 1009.4 L60.9921 1007.73 L65.668 1007.73 L65.668 1038.36 L73.3068 1038.36 L73.3068 1042.29 L53.3995 1042.29 L53.3995 1038.36 Z" fill="#000000" fill-rule="nonzero" fill-opacity="1"></path><path clip-path="url(#clip590)" d="M92.7512 1010.81 Q89.1401 1010.81 87.3114 1014.37 Q85.5058 1017.92 85.5058 1025.05 Q85.5058 1032.15 87.3114 1035.72 Q89.1401 1039.26 92.7512 1039.26 Q96.3854 1039.26 98.1909 1035.72 Q100.02 1032.15 100.02 1025.05 Q100.02 1017.92 98.1909 1014.37 Q96.3854 1010.81 92.7512 1010.81 M92.7512 1007.11 Q98.5613 1007.11 101.617 1011.71 Q104.696 1016.3 104.696 1025.05 Q104.696 1033.77 101.617 1038.38 Q98.5613 1042.96 92.7512 1042.96 Q86.941 1042.96 83.8623 1038.38 Q80.8068 1033.77 80.8068 1025.05 Q80.8068 1016.3 83.8623 1011.71 Q86.941 1007.11 92.7512 1007.11 Z" fill="#000000" fill-rule="nonzero" fill-opacity="1"></path><path clip-path="url(#clip590)" d="M122.913 1010.81 Q119.302 1010.81 117.473 1014.37 Q115.668 1017.92 115.668 1025.05 Q115.668 1032.15 117.473 1035.72 Q119.302 1039.26 122.913 1039.26 Q126.547 1039.26 128.353 1035.72 Q130.182 1032.15 130.182 1025.05 Q130.182 1017.92 128.353 1014.37 Q126.547 1010.81 122.913 1010.81 M122.913 1007.11 Q128.723 1007.11 131.779 1011.71 Q134.857 1016.3 134.857 1025.05 Q134.857 1033.77 131.779 1038.38 Q128.723 1042.96 122.913 1042.96 Q117.103 1042.96 114.024 1038.38 Q110.969 1033.77 110.969 1025.05 Q110.969 1016.3 114.024 1011.71 Q117.103 1007.11 122.913 1007.11 Z" fill="#000000" fill-rule="nonzero" fill-opacity="1"></path><path clip-path="url(#clip590)" d="M153.075 1010.81 Q149.464 1010.81 147.635 1014.37 Q145.83 1017.92 145.83 1025.05 Q145.83 1032.15 147.635 1035.72 Q149.464 1039.26 153.075 1039.26 Q156.709 1039.26 158.515 1035.72 Q160.343 1032.15 160.343 1025.05 Q160.343 1017.92 158.515 1014.37 Q156.709 1010.81 153.075 1010.81 M153.075 1007.11 Q158.885 1007.11 161.941 1011.71 Q165.019 1016.3 165.019 1025.05 Q165.019 1033.77 161.941 1038.38 Q158.885 1042.96 153.075 1042.96 Q147.265 1042.96 144.186 1038.38 Q141.131 1033.77 141.131 1025.05 Q141.131 1016.3 144.186 1011.71 Q147.265 1007.11 153.075 1007.11 Z" fill="#000000" fill-rule="nonzero" fill-opacity="1"></path><path clip-path="url(#clip590)" d="M53.3995 788.68 L61.0384 788.68 L61.0384 762.314 L52.7282 763.981 L52.7282 759.722 L60.9921 758.055 L65.668 758.055 L65.668 788.68 L73.3068 788.68 L73.3068 792.615 L53.3995 792.615 L53.3995 788.68 Z" fill="#000000" fill-rule="nonzero" fill-opacity="1"></path><path clip-path="url(#clip590)" d="M82.7975 758.055 L101.154 758.055 L101.154 761.99 L87.0799 761.99 L87.0799 770.462 Q88.0984 770.115 89.1169 769.953 Q90.1354 769.768 91.1539 769.768 Q96.941 769.768 100.321 772.939 Q103.7 776.11 103.7 781.527 Q103.7 787.106 100.228 790.208 Q96.7558 793.286 90.4364 793.286 Q88.2604 793.286 85.9919 792.916 Q83.7466 792.546 81.3392 791.805 L81.3392 787.106 Q83.4225 788.24 85.6447 788.796 Q87.8669 789.351 90.3438 789.351 Q94.3484 789.351 96.6863 787.245 Q99.0243 785.138 99.0243 781.527 Q99.0243 777.916 96.6863 775.81 Q94.3484 773.703 90.3438 773.703 Q88.4688 773.703 86.5938 774.12 Q84.7419 774.536 82.7975 775.416 L82.7975 758.055 Z" fill="#000000" fill-rule="nonzero" fill-opacity="1"></path><path clip-path="url(#clip590)" d="M122.913 761.134 Q119.302 761.134 117.473 764.698 Q115.668 768.24 115.668 775.37 Q115.668 782.476 117.473 786.041 Q119.302 789.583 122.913 789.583 Q126.547 789.583 128.353 786.041 Q130.182 782.476 130.182 775.37 Q130.182 768.24 128.353 764.698 Q126.547 761.134 122.913 761.134 M122.913 757.43 Q128.723 757.43 131.779 762.036 Q134.857 766.62 134.857 775.37 Q134.857 784.097 131.779 788.703 Q128.723 793.286 122.913 793.286 Q117.103 793.286 114.024 788.703 Q110.969 784.097 110.969 775.37 Q110.969 766.62 114.024 762.036 Q117.103 757.43 122.913 757.43 Z" fill="#000000" fill-rule="nonzero" fill-opacity="1"></path><path clip-path="url(#clip590)" d="M153.075 761.134 Q149.464 761.134 147.635 764.698 Q145.83 768.24 145.83 775.37 Q145.83 782.476 147.635 786.041 Q149.464 789.583 153.075 789.583 Q156.709 789.583 158.515 786.041 Q160.343 782.476 160.343 775.37 Q160.343 768.24 158.515 764.698 Q156.709 761.134 153.075 761.134 M153.075 757.43 Q158.885 757.43 161.941 762.036 Q165.019 766.62 165.019 775.37 Q165.019 784.097 161.941 788.703 Q158.885 793.286 153.075 793.286 Q147.265 793.286 144.186 788.703 Q141.131 784.097 141.131 775.37 Q141.131 766.62 144.186 762.036 Q147.265 757.43 153.075 757.43 Z" fill="#000000" fill-rule="nonzero" fill-opacity="1"></path><path clip-path="url(#clip590)" d="M56.6171 539.004 L72.9365 539.004 L72.9365 542.939 L50.9921 542.939 L50.9921 539.004 Q53.6541 536.249 58.2375 531.619 Q62.8439 526.967 64.0245 525.624 Q66.2698 523.101 67.1494 521.365 Q68.0522 519.606 68.0522 517.916 Q68.0522 515.161 66.1078 513.425 Q64.1865 511.689 61.0847 511.689 Q58.8856 511.689 56.4319 512.453 Q54.0014 513.217 51.2236 514.768 L51.2236 510.045 Q54.0477 508.911 56.5014 508.332 Q58.955 507.754 60.9921 507.754 Q66.3624 507.754 69.5568 510.439 Q72.7513 513.124 72.7513 517.615 Q72.7513 519.744 71.9411 521.666 Q71.1541 523.564 69.0476 526.156 Q68.4689 526.828 65.367 530.045 Q62.2652 533.24 56.6171 539.004 Z" fill="#000000" fill-rule="nonzero" fill-opacity="1"></path><path clip-path="url(#clip590)" d="M92.7512 511.457 Q89.1401 511.457 87.3114 515.022 Q85.5058 518.564 85.5058 525.693 Q85.5058 532.8 87.3114 536.365 Q89.1401 539.906 92.7512 539.906 Q96.3854 539.906 98.1909 536.365 Q100.02 532.8 100.02 525.693 Q100.02 518.564 98.1909 515.022 Q96.3854 511.457 92.7512 511.457 M92.7512 507.754 Q98.5613 507.754 101.617 512.36 Q104.696 516.944 104.696 525.693 Q104.696 534.42 101.617 539.027 Q98.5613 543.61 92.7512 543.61 Q86.941 543.61 83.8623 539.027 Q80.8068 534.42 80.8068 525.693 Q80.8068 516.944 83.8623 512.36 Q86.941 507.754 92.7512 507.754 Z" fill="#000000" fill-rule="nonzero" fill-opacity="1"></path><path clip-path="url(#clip590)" d="M122.913 511.457 Q119.302 511.457 117.473 515.022 Q115.668 518.564 115.668 525.693 Q115.668 532.8 117.473 536.365 Q119.302 539.906 122.913 539.906 Q126.547 539.906 128.353 536.365 Q130.182 532.8 130.182 525.693 Q130.182 518.564 128.353 515.022 Q126.547 511.457 122.913 511.457 M122.913 507.754 Q128.723 507.754 131.779 512.36 Q134.857 516.944 134.857 525.693 Q134.857 534.42 131.779 539.027 Q128.723 543.61 122.913 543.61 Q117.103 543.61 114.024 539.027 Q110.969 534.42 110.969 525.693 Q110.969 516.944 114.024 512.36 Q117.103 507.754 122.913 507.754 Z" fill="#000000" fill-rule="nonzero" fill-opacity="1"></path><path clip-path="url(#clip590)" d="M153.075 511.457 Q149.464 511.457 147.635 515.022 Q145.83 518.564 145.83 525.693 Q145.83 532.8 147.635 536.365 Q149.464 539.906 153.075 539.906 Q156.709 539.906 158.515 536.365 Q160.343 532.8 160.343 525.693 Q160.343 518.564 158.515 515.022 Q156.709 511.457 153.075 511.457 M153.075 507.754 Q158.885 507.754 161.941 512.36 Q165.019 516.944 165.019 525.693 Q165.019 534.42 161.941 539.027 Q158.885 543.61 153.075 543.61 Q147.265 543.61 144.186 539.027 Q141.131 534.42 141.131 525.693 Q141.131 516.944 144.186 512.36 Q147.265 507.754 153.075 507.754 Z" fill="#000000" fill-rule="nonzero" fill-opacity="1"></path><path clip-path="url(#clip590)" d="M56.6171 289.327 L72.9365 289.327 L72.9365 293.262 L50.9921 293.262 L50.9921 289.327 Q53.6541 286.573 58.2375 281.943 Q62.8439 277.29 64.0245 275.948 Q66.2698 273.425 67.1494 271.689 Q68.0522 269.929 68.0522 268.239 Q68.0522 265.485 66.1078 263.749 Q64.1865 262.013 61.0847 262.013 Q58.8856 262.013 56.4319 262.777 Q54.0014 263.54 51.2236 265.091 L51.2236 260.369 Q54.0477 259.235 56.5014 258.656 Q58.955 258.077 60.9921 258.077 Q66.3624 258.077 69.5568 260.763 Q72.7513 263.448 72.7513 267.939 Q72.7513 270.068 71.9411 271.989 Q71.1541 273.888 69.0476 276.48 Q68.4689 277.151 65.367 280.369 Q62.2652 283.563 56.6171 289.327 Z" fill="#000000" fill-rule="nonzero" fill-opacity="1"></path><path clip-path="url(#clip590)" d="M82.7975 258.702 L101.154 258.702 L101.154 262.638 L87.0799 262.638 L87.0799 271.11 Q88.0984 270.763 89.1169 270.601 Q90.1354 270.415 91.1539 270.415 Q96.941 270.415 100.321 273.587 Q103.7 276.758 103.7 282.175 Q103.7 287.753 100.228 290.855 Q96.7558 293.934 90.4364 293.934 Q88.2604 293.934 85.9919 293.563 Q83.7466 293.193 81.3392 292.452 L81.3392 287.753 Q83.4225 288.888 85.6447 289.443 Q87.8669 289.999 90.3438 289.999 Q94.3484 289.999 96.6863 287.892 Q99.0243 285.786 99.0243 282.175 Q99.0243 278.563 96.6863 276.457 Q94.3484 274.351 90.3438 274.351 Q88.4688 274.351 86.5938 274.767 Q84.7419 275.184 82.7975 276.064 L82.7975 258.702 Z" fill="#000000" fill-rule="nonzero" fill-opacity="1"></path><path clip-path="url(#clip590)" d="M122.913 261.781 Q119.302 261.781 117.473 265.346 Q115.668 268.888 115.668 276.017 Q115.668 283.124 117.473 286.688 Q119.302 290.23 122.913 290.23 Q126.547 290.23 128.353 286.688 Q130.182 283.124 130.182 276.017 Q130.182 268.888 128.353 265.346 Q126.547 261.781 122.913 261.781 M122.913 258.077 Q128.723 258.077 131.779 262.684 Q134.857 267.267 134.857 276.017 Q134.857 284.744 131.779 289.35 Q128.723 293.934 122.913 293.934 Q117.103 293.934 114.024 289.35 Q110.969 284.744 110.969 276.017 Q110.969 267.267 114.024 262.684 Q117.103 258.077 122.913 258.077 Z" fill="#000000" fill-rule="nonzero" fill-opacity="1"></path><path clip-path="url(#clip590)" d="M153.075 261.781 Q149.464 261.781 147.635 265.346 Q145.83 268.888 145.83 276.017 Q145.83 283.124 147.635 286.688 Q149.464 290.23 153.075 290.23 Q156.709 290.23 158.515 286.688 Q160.343 283.124 160.343 276.017 Q160.343 268.888 158.515 265.346 Q156.709 261.781 153.075 261.781 M153.075 258.077 Q158.885 258.077 161.941 262.684 Q165.019 267.267 165.019 276.017 Q165.019 284.744 161.941 289.35 Q158.885 293.934 153.075 293.934 Q147.265 293.934 144.186 289.35 Q141.131 284.744 141.131 276.017 Q141.131 267.267 144.186 262.684 Q147.265 258.077 153.075 258.077 Z" fill="#000000" fill-rule="nonzero" fill-opacity="1"></path><polyline clip-path="url(#clip592)" style="stroke:#009af9; stroke-linecap:round; stroke-linejoin:round; stroke-width:4; stroke-opacity:1; fill:none" points="261.917,1445.72 324.059,1325.25 427.627,1190.92 634.764,1014.28 945.469,718.159 1256.17,570.85 1877.58,309.938 2291.86,87.9763 "></polyline>
<path clip-path="url(#clip590)" d="M272.744 198.898 L540.348 198.898 L540.348 95.2176 L272.744 95.2176  Z" fill="#ffffff" fill-rule="evenodd" fill-opacity="1"></path>
<polyline clip-path="url(#clip590)" style="stroke:#000000; stroke-linecap:round; stroke-linejoin:round; stroke-width:4; stroke-opacity:1; fill:none" points="272.744,198.898 540.348,198.898 540.348,95.2176 272.744,95.2176 272.744,198.898 "></polyline>
<polyline clip-path="url(#clip590)" style="stroke:#009af9; stroke-linecap:round; stroke-linejoin:round; stroke-width:4; stroke-opacity:1; fill:none" points="296.652,147.058 440.101,147.058 "></polyline>
<path clip-path="url(#clip590)" d="M477.852 166.745 Q476.046 171.375 474.333 172.787 Q472.62 174.199 469.75 174.199 L466.347 174.199 L466.347 170.634 L468.847 170.634 Q470.607 170.634 471.579 169.8 Q472.551 168.967 473.731 165.865 L474.495 163.921 L464.009 138.412 L468.523 138.412 L476.625 158.689 L484.727 138.412 L489.241 138.412 L477.852 166.745 Z" fill="#000000" fill-rule="nonzero" fill-opacity="1"></path><path clip-path="url(#clip590)" d="M496.532 160.402 L504.171 160.402 L504.171 134.037 L495.861 135.703 L495.861 131.444 L504.125 129.778 L508.801 129.778 L508.801 160.402 L516.44 160.402 L516.44 164.338 L496.532 164.338 L496.532 160.402 Z" fill="#000000" fill-rule="nonzero" fill-opacity="1"></path></svg>